<svg xmlns="http://www.w3.org/2000/svg" xmlns:xlink="http://www.w3.org/1999/xlink" viewBox="0 0 2155.42 1790.96"><defs><style>.cls-1{fill:none;stroke:#3f1c6f;stroke-miterlimit:10;stroke-width:3.53px;}.cls-2{fill:url(#Nepojmenovaný_přechod_10);}.cls-3{fill:url(#Nepojmenovaný_přechod_10-2);}</style><linearGradient id="Nepojmenovaný_přechod_10" x1="1077.71" y1="1201.27" x2="1077.71" y2="626.28" gradientUnits="userSpaceOnUse"><stop offset="0.18" stop-color="#2f025e" stop-opacity="0"/><stop offset="0.51" stop-color="#2f025e"/></linearGradient><linearGradient id="Nepojmenovaný_přechod_10-2" x1="1103.71" y1="276.71" x2="1103.71" y2="-298.28" gradientTransform="translate(-26 589.69)" xlink:href="#Nepojmenovaný_přechod_10"/></defs><title>bg</title><g id="Vrstva_2" data-name="Vrstva 2"><g id="Vrstva_1-2" data-name="Vrstva 1"><path class="cls-1" d="M38.68,934.72Q24.09,938,9.48,941.18"/><path class="cls-1" d="M95.37,934.72c-28.57,7.34-57.25,14.14-86,20.66"/><path class="cls-1" d="M152.05,934.72c-47.47,11.74-95,23.18-142.53,34.62"/><path class="cls-1" d="M208.74,934.72c-65.41,18.55-132.86,34-199.06,51.1"/><path class="cls-1" d="M265.42,934.72Q165.71,962.47,65.76,989.1l-56,15"/><path class="cls-1" d="M322.11,934.72c-104.41,30.13-208.18,61-312,91.23"/><path class="cls-1" d="M378.8,934.72c-47.51,15.81-95.45,30-143.39,44-48.35,14.18-96.2,30.73-144.31,45.9q-40.69,12.83-81.43,25.5"/><path class="cls-1" d="M435.48,934.72Q223,1008.84,10.32,1079.52"/><path class="cls-1" d="M492.17,934.72c-99.79,35.91-380.72,141.9-482.76,178.54"/><path class="cls-1" d="M548.85,934.72Q444.06,977.2,339.37,1020q-105,42.95-209.88,86.27c-39.86,16.47-79.58,33.4-119.61,49.33"/><path class="cls-1" d="M605.54,934.72c-40.2,18.55-80,37.84-119.76,57.13-17.3,7.71-34.59,13.5-51.89,21.22-5.19,1.92-10.37,1.92-15.56,3.85-121.07,61.72-242.14,109.94-363.2,169.74-15.57,5.78-29.41,13.5-45.27,17.38"/><path class="cls-1" d="M662.23,934.72c-102.08,51.34-202.39,103.42-304.44,157.43-3.46,1.92-5.19,0-8.64,1.92C235,1155.8,122.58,1207.87,9.66,1268.74"/><path class="cls-1" d="M718.91,934.72c-20.4,16.62-44.61,20.48-67.1,37.84-6.91,5.79-15.56,9.65-22.48,15.43-15.57,7.72-29.4,15.43-45,23.15-8.65,5.78-15.56,13.5-24.21,17.36a49.59,49.59,0,0,0-13.84,7.71c-1.73,1.93-5.19,0-6.92,1.93-38.05,27-74.37,46.29-112.42,67.51-141.82,82.94-278.45,160.09-417,242.11"/><path class="cls-1" d="M775.6,934.72c-172.21,118.85-340,232.65-519.85,354.16C171,1344.82,93.18,1400.75,9.7,1455.2"/><path class="cls-1" d="M832.28,934.72c-128.58,105.35-253.11,205.65-388,315.59-100.31,82.93-331.44,272-431.75,353"/><path class="cls-1" d="M889,934.72c-1.94,1.19-3.67,5-5.4,7-5.19,3.86-10.38,7.72-13.84,11.57-12.1,15.43-24.21,27-36.32,40.51C714.08,1117.22,188.13,1653,58.55,1787.44"/><path class="cls-1" d="M945.65,934.72c-202.17,277-408,552.83-610.34,832.5-15.78,24.56,0,0-14.37,22.79"/><path class="cls-1" d="M1002.34,934.72c-73.8,151.64-146.44,300.16-222.54,456.39-6.92,9.64-12.11,21.22-15.57,30.86-27.67,55.93-53.61,108-81.29,164-31.13,69.43-65.72,135-99.15,203.41"/><path class="cls-1" d="M1059,934.72q-104.94,427.1-209.31,854.74"/><path class="cls-1" d="M1115.71,934.72c-.38,284.73-.38,570.19,0,854.74"/><path class="cls-1" d="M1115.71,934.81q-553.15-1.23-1106.22,0"/><path class="cls-1" d="M1115.71,943.14q-553.15.74-1106.3,0"/><path class="cls-1" d="M1115.71,952.09Q562.56,951,9.49,952.09"/><path class="cls-1" d="M1115.71,961.74q-553.15-1.12-1106.29,0"/><path class="cls-1" d="M1115.71,972.16q-553.15.6-1106.13.4"/><path class="cls-1" d="M1115.71,983.45q-553.15-1.86-1106.14-.54"/><path class="cls-1" d="M1115.71,995.74q-553.15,0-1106.16.15"/><path class="cls-1" d="M1115.71,1009.16q-553.15.08-1106.11.2"/><path class="cls-1" d="M1115.71,1023.86c-368.77-3.08-737.16-1.15-1106.09-.49"/><path class="cls-1" d="M1115.71,1040.05q-553.15,0-1105.59.18"/><path class="cls-1" d="M1115.71,1058q-553.15-.8-1106.07-.14"/><path class="cls-1" d="M1115.71,1077.88c-368.77-3.09-737.16-1.16-1106.06-.5"/><path class="cls-1" d="M1115.71,1100.17q-553.15-.47-1106,0"/><path class="cls-1" d="M1115.71,1125.29q-553.15-.52-1105.56,0"/><path class="cls-1" d="M1115.71,1153.8q-553.15.1-1105.64.21"/><path class="cls-1" d="M1115.71,1186.43q-553.15.35-1105.55.3"/><path class="cls-1" d="M1115.71,1224.17q-553.15-1.31-1105.67-.33"/><path class="cls-1" d="M1115.71,1268.3q-553.15-.94-1106.08-.19"/><path class="cls-1" d="M1115.71,1320.59q-553.15-1.27-1106.14-.31"/><path class="cls-1" d="M1115.71,1383.56q-553.15-.25-1105.63.07"/><path class="cls-1" d="M1115.71,1460.82q-553.15-.42-1105.54,0"/><path class="cls-1" d="M1115.71,1557.88q-553.15-1.35-1106.16-.34"/><path class="cls-1" d="M1115.71,1683.47c-368.77-3-737.16-1.11-1106.13-.47"/><path class="cls-1" d="M2136.05,934.72q8.14,2.07,16.29,4.06"/><path class="cls-1" d="M2079.37,934.72c24.2,6.46,48.56,12.2,72.9,17.94"/><path class="cls-1" d="M2022.68,934.72q64.75,17.25,129.57,34.1"/><path class="cls-1" d="M1966,934.72c60.79,18.55,123.05,32,185.94,51.53"/><path class="cls-1" d="M1909.31,934.72c81.16,24.34,160.72,47.49,242.68,70.95"/><path class="cls-1" d="M1852.62,934.72q58,18.53,116.12,36.6,58.71,18.3,117.47,36.4l66.08,20.41"/><path class="cls-1" d="M1795.94,934.72q69.54,23.7,139.07,47.47l138.86,47.48,78.34,26.75"/><path class="cls-1" d="M1739.25,934.72c86.91,35.91,176.85,62.92,265,97.63,48.43,19.29,96.86,38.58,147.17,54.69"/><path class="cls-1" d="M1682.57,934.72q91.92,37,183.63,74.63t183.25,75.33q51.27,21.12,102.54,42.21"/><path class="cls-1" d="M1625.88,934.72c174.34,80.27,350.75,159.35,525.63,238.08"/><path class="cls-1" d="M1569.2,934.72c68.44,34,511.59,264.28,582.5,297.07"/><path class="cls-1" d="M1512.51,934.72c132,76.42,263.5,151.64,396.67,232.65,22.48,11.57,220.71,113.12,243.19,126.62"/><path class="cls-1" d="M2134.88,1396.25l17.08,11.69"/><path class="cls-1" d="M1455.82,934.72q67.61,46.92,135.7,92.93,68.3,46.24,136.82,92.08c46,30.83,92,61.61,136.81,94.51,21.64,15.89,265.16,177.91,286.81,193.7"/><path class="cls-1" d="M1399.14,934.72c114,93.78,222.94,182.5,344,278.94,46.69,38.58,362.52,295.73,409.22,332.37"/><path class="cls-1" d="M1342.45,934.72c182.77,186.36,619.82,634.6,806.61,825.55"/><path class="cls-1" d="M1285.77,934.72c.78,1.19.78,3.12,2.51,5,13.84,15.43,22.48,30.86,36.32,46.29,6.92,9.65,12.11,19.29,19,28.93,46.7,61.73,88.21,119.59,133.18,181.31,6.92,9.64,15.56,17.36,22.48,27,79.56,113.8,155.66,212.17,237,326,60.53,82.94,117.6,160.09,177.35,240"/><path class="cls-1" d="M1229.08,934.72c19.42,41.7,40.17,80.27,60.93,122.71,17.29,38.57,34.59,71.36,53.61,109.94,76.1,158.16,150.47,306.68,228.3,464.84,25.94,54,50.16,104.15,75.71,157.12"/><path class="cls-1" d="M1172.4,934.72c69.18,284.73,141.82,570.19,209.3,854.74"/><path class="cls-1" d="M1115.71,934.81c345.52-.82,689.7-.82,1036.27,0"/><path class="cls-1" d="M1115.71,943.14q518.28.74,1036.65.41"/><path class="cls-1" d="M1115.71,952.09Q1634,951,2152.37,951.86"/><path class="cls-1" d="M1115.71,961.74c345.52-.75,689.7-.75,1036.31-.24"/><path class="cls-1" d="M1115.71,972.16c345.52.4,689.7.4,1036.25.36"/><path class="cls-1" d="M1115.71,983.45Q1634,981.59,2152.26,983"/><path class="cls-1" d="M1115.71,995.74c345.52,0,689.7,0,1036.28.14"/><path class="cls-1" d="M1115.71,1009.16q518.28.08,1036.6.18"/><path class="cls-1" d="M1115.71,1023.86c345.52-3.08,689.7-1.15,1036.18-.45"/><path class="cls-1" d="M1115.71,1040.05c345.52,0,689.7,0,1036.17.16"/><path class="cls-1" d="M1115.71,1058c345.52-.53,689.7-.53,1036.15-.12"/><path class="cls-1" d="M1115.71,1077.88c345.52-3.09,689.7-1.16,1036.28-.45"/><path class="cls-1" d="M1115.71,1100.17c345.52-.31,689.7-.31,1036.16,0"/><path class="cls-1" d="M1115.71,1125.29q518.28-.52,1036.63,0"/><path class="cls-1" d="M1115.71,1153.8c345.52.07,689.7.07,1036.17.19"/><path class="cls-1" d="M1115.71,1186.43c345.52.23,689.7.23,1035.83.28"/><path class="cls-1" d="M1115.71,1224.17c345.52-.87,689.7-.87,1036.24-.3"/><path class="cls-1" d="M1115.71,1268.3c345.52-.63,689.7-.63,1036.29-.18"/><path class="cls-1" d="M1115.71,1320.59c345.52-.85,689.7-.85,1036.28-.29"/><path class="cls-1" d="M1115.71,1383.56q518.28-.25,1036.6.07"/><path class="cls-1" d="M1115.71,1460.82c345.52-.28,689.7-.28,1036.31,0"/><path class="cls-1" d="M1115.71,1557.88q518.28-1.35,1036.66-.31"/><path class="cls-1" d="M1115.71,1683.47c345.52-3,689.7-1.11,1036.21-.43"/><rect class="cls-2" y="924.56" width="2155.42" height="276.71"/><path class="cls-1" d="M2116.73,856.23l29.21-6.46"/><path class="cls-1" d="M2060.05,856.23c28.57-7.33,57.24-14.13,86-20.66"/><path class="cls-1" d="M2003.36,856.23q71.22-17.6,142.54-34.61"/><path class="cls-1" d="M1946.68,856.23c65.4-18.55,132.85-34,199.06-51.1"/><path class="cls-1" d="M1890,856.23q99.71-27.74,199.66-54.37,28-7.53,56.06-15"/><path class="cls-1" d="M1833.31,856.23c104.4-30.12,208.18-61,312-91.23"/><path class="cls-1" d="M1776.62,856.23c47.51-15.8,95.44-30,143.39-44,48.34-14.18,96.19-30.74,144.31-45.91q40.68-12.82,81.42-25.49"/><path class="cls-1" d="M1719.93,856.23q212.52-74.12,425.17-144.79"/><path class="cls-1" d="M1663.25,856.23C1763,820.32,2044,714.34,2146,677.69"/><path class="cls-1" d="M1606.56,856.23q104.81-42.47,209.49-85.28,105-43,209.88-86.28c39.86-16.46,79.57-33.4,119.61-49.33"/><path class="cls-1" d="M1549.88,856.23c40.2-18.55,80-37.84,119.76-57.12,17.29-7.72,34.59-13.51,51.88-21.22,5.19-1.93,10.38-1.93,15.57-3.86,121.07-61.72,242.13-109.94,363.2-169.73,15.57-5.79,29.4-13.5,45.27-17.38"/><path class="cls-1" d="M1493.19,856.23c102.08-51.34,202.39-103.41,304.43-157.42,3.46-1.93,5.19,0,8.65-1.93,114.15-61.72,226.57-113.8,339.49-174.66"/><path class="cls-1" d="M1436.5,856.23c20.41-16.62,44.62-20.48,67.1-37.84,6.92-5.78,15.57-9.64,22.49-15.43,15.56-7.71,29.4-15.43,45-23.14,8.65-5.79,15.57-13.5,24.22-17.36a49.84,49.84,0,0,0,13.83-7.72c1.73-1.92,5.19,0,6.92-1.92,38-27,74.37-46.3,112.42-67.51,141.82-82.94,278.45-160.09,417-242.12"/><path class="cls-1" d="M1379.82,856.23c172.21-118.85,340-232.64,519.84-354.16,84.75-55.93,162.58-111.87,246-166.31"/><path class="cls-1" d="M1323.13,856.23c128.59-105.34,253.11-205.64,388-315.58,100.31-82.94,331.43-272,431.75-353"/><path class="cls-1" d="M1266.45,856.23c1.94-1.19,3.67-5.05,5.4-7,5.18-3.85,10.37-7.71,13.83-11.57,12.11-15.43,24.22-27,36.32-40.5C1441.34,673.73,1967.29,138,2096.86,3.52"/><path class="cls-1" d="M1209.76,856.23c202.18-277,408-552.82,610.35-832.5,15.78-24.55,0,0,14.36-22.79"/><path class="cls-1" d="M1153.08,856.23c73.8-151.63,146.44-300.15,222.54-456.38,6.92-9.65,12.1-21.22,15.56-30.86,27.68-55.94,53.62-108,81.29-164,31.13-69.44,65.72-135,99.15-203.41"/><path class="cls-1" d="M1096.39,856.23Q1201.31,429.15,1305.7,1.49"/><path class="cls-1" d="M1039.7,856.23c.39-284.72.39-570.18,0-854.74"/><path class="cls-1" d="M1039.7,856.14q553.17,1.25,1106.22,0"/><path class="cls-1" d="M1039.7,847.81q553.17-.72,1106.31,0"/><path class="cls-1" d="M1039.7,838.86q553.17,1.13,1106.23,0"/><path class="cls-1" d="M1039.7,829.22q553.17,1.13,1106.3,0"/><path class="cls-1" d="M1039.7,818.8q553.17-.62,1106.14-.4"/><path class="cls-1" d="M1039.7,807.5q553.17,1.88,1106.15.55"/><path class="cls-1" d="M1039.7,795.21q553.17.06,1106.16-.15"/><path class="cls-1" d="M1039.7,781.8q553.17-.07,1106.12-.2"/><path class="cls-1" d="M1039.7,767.1c368.78,3.07,737.17,1.15,1106.1.49"/><path class="cls-1" d="M1039.7,750.91q553.17,0,1105.59-.19"/><path class="cls-1" d="M1039.7,733q553.17.79,1106.07.13"/><path class="cls-1" d="M1039.7,713.07c368.78,3.1,737.17,1.17,1106.07.5"/><path class="cls-1" d="M1039.7,690.78q553.17.47,1106,0"/><path class="cls-1" d="M1039.7,665.67q553.17.52,1105.57,0"/><path class="cls-1" d="M1039.7,637.16q553.17-.1,1105.64-.21"/><path class="cls-1" d="M1039.71,604.52q553.16-.33,1105.54-.3"/><path class="cls-1" d="M1039.71,566.79q553.16,1.29,1105.67.32"/><path class="cls-1" d="M1039.71,522.66q553.16.95,1106.07.19"/><path class="cls-1" d="M1039.71,470.36q553.16,1.27,1106.13.32"/><path class="cls-1" d="M1039.71,407.4q553.16.24,1105.63-.08"/><path class="cls-1" d="M1039.71,330.14q553.16.41,1105.54,0"/><path class="cls-1" d="M1039.71,233.07q553.16,1.35,1106.16.35"/><path class="cls-1" d="M1039.71,107.48c368.77,3,737.16,1.12,1106.13.47"/><path class="cls-1" d="M19.36,856.23q-8.13-2.06-16.29-4.06"/><path class="cls-1" d="M76.05,856.23C51.84,849.77,27.49,844,3.14,838.29"/><path class="cls-1" d="M132.73,856.23Q68,839,3.16,822.13"/><path class="cls-1" d="M189.42,856.23C128.63,837.68,66.36,824.18,3.47,804.7"/><path class="cls-1" d="M246.11,856.23C165,831.9,85.39,808.75,3.42,785.29"/><path class="cls-1" d="M302.79,856.23q-58-18.53-116.11-36.59Q128,801.34,69.21,783.24L3.12,762.83"/><path class="cls-1" d="M359.48,856.23q-69.56-23.68-139.07-47.47L81.54,761.29,3.21,734.54"/><path class="cls-1" d="M416.16,856.23c-86.91-35.91-176.84-62.91-265-97.63C102.68,739.31,54.26,720,3.94,703.92"/><path class="cls-1" d="M472.85,856.23q-91.92-37-183.64-74.63T106,706.27Q54.7,685.15,3.42,664.06"/><path class="cls-1" d="M529.53,856.23C355.2,776,178.78,696.88,3.9,618.15"/><path class="cls-1" d="M586.22,856.23C517.77,822.25,74.62,592,3.71,559.17"/><path class="cls-1" d="M642.91,856.23C510.85,779.82,379.41,704.6,246.24,623.59,223.75,612,25.53,510.46,3,497"/><path class="cls-1" d="M20.54,394.71,3.46,383"/><path class="cls-1" d="M699.59,856.23q-67.59-46.9-135.7-92.92-68.29-46.26-136.82-92.09c-46-30.82-92-61.61-136.81-94.51C268.62,560.82,25.11,398.81,3.46,383"/><path class="cls-1" d="M756.28,856.23c-114-93.77-222.94-182.5-344-278.93C365.57,538.72,49.74,281.57,3,244.92"/><path class="cls-1" d="M813,856.23C630.19,669.88,193.15,221.64,6.36,30.69"/><path class="cls-1" d="M869.65,856.23c-.78-1.19-.78-3.12-2.51-5.05-13.84-15.43-22.49-30.86-36.32-46.29-6.92-9.64-12.11-19.29-19-28.93-46.7-61.72-88.2-119.58-133.17-181.31-6.92-9.64-15.57-17.35-22.49-27-79.55-113.8-155.65-212.17-236.94-326C358.65,158.75,301.58,81.6,241.84,1.65"/><path class="cls-1" d="M926.33,856.23c-19.41-41.69-40.17-80.27-60.92-122.7-17.3-38.58-34.59-71.37-53.62-109.94-76.1-158.16-150.47-306.68-228.3-464.84-25.94-54-50.15-104.16-75.7-157.12"/><path class="cls-1" d="M983,856.23C913.83,571.51,841.19,286.05,773.71,1.49"/><path class="cls-1" d="M1039.71,856.14c-345.53.83-689.7.83-1036.27,0"/><path class="cls-1" d="M1039.71,847.81q-518.3-.72-1036.65-.41"/><path class="cls-1" d="M1039.71,838.86Q521.42,840,3.05,839.1"/><path class="cls-1" d="M1039.71,829.22C694.18,830,350,830,3.4,829.45"/><path class="cls-1" d="M1039.71,818.8c-345.53-.41-689.7-.41-1036.25-.37"/><path class="cls-1" d="M1039.71,807.5q-518.3,1.88-1036.56.5"/><path class="cls-1" d="M1039.71,795.21c-345.53,0-689.7,0-1036.28-.13"/><path class="cls-1" d="M1039.71,781.8q-518.3-.07-1036.61-.18"/><path class="cls-1" d="M1039.71,767.1c-345.53,3.07-689.7,1.15-1036.18.44"/><path class="cls-1" d="M1039.71,750.91c-345.53,0-689.7,0-1036.17-.17"/><path class="cls-1" d="M1039.71,733c-345.53.53-689.7.53-1036.15.12"/><path class="cls-1" d="M1039.71,713.07c-345.53,3.1-689.7,1.17-1036.28.46"/><path class="cls-1" d="M1039.71,690.78c-345.53.31-689.7.31-1036.16,0"/><path class="cls-1" d="M1039.71,665.67q-518.3.52-1036.63,0"/><path class="cls-1" d="M1039.71,637.16C694.18,637.09,350,637.09,3.53,637"/><path class="cls-1" d="M1039.71,604.52c-345.53-.22-689.7-.22-1035.84-.27"/><path class="cls-1" d="M1039.71,566.79c-345.53.86-689.7.86-1036.25.29"/><path class="cls-1" d="M1039.71,522.66c-345.53.63-689.7.63-1036.3.17"/><path class="cls-1" d="M1039.71,470.36c-345.53.85-689.7.85-1036.28.29"/><path class="cls-1" d="M1039.71,407.4q-518.3.24-1036.61-.07"/><path class="cls-1" d="M1039.7,330.14c-345.52.27-689.69.27-1036.3,0"/><path class="cls-1" d="M1039.7,233.07Q521.42,234.42,3,233.39"/><path class="cls-1" d="M1039.7,107.48c-345.52,3-689.69,1.12-1036.2.43"/><rect class="cls-3" y="589.69" width="2155.42" height="276.71" transform="translate(2155.42 1456.08) rotate(180)"/></g></g></svg>