<svg xmlns="http://www.w3.org/2000/svg" width="187.907" height="40.82" viewBox="0 0 187.907 40.82">
  <defs>
    <style>
      .cls-1 {
        fill: #fff;
        fill-rule: evenodd;
      }
    </style>
  </defs>
  <path id="_270" data-name="270" class="cls-1" d="M706,6219.92a19.2,19.2,0,0,1,3.76-4,17.422,17.422,0,0,1,4.72-2.68,14.7,14.7,0,0,1,5.2-.96H739.6a2.222,2.222,0,0,0,.72-0.08h22.24a15.438,15.438,0,0,1-2.6,4.12,18.051,18.051,0,0,1-3.68,3.24,17.682,17.682,0,0,1-4.32,2.12,14.374,14.374,0,0,1-4.6.76h-20a3.355,3.355,0,0,0-2,.64,3.207,3.207,0,0,0-1.2,1.76l-0.64,2.56h35.44l-2.56,10.24h-55.84l3.2-12.8A14.375,14.375,0,0,1,706,6219.92Zm57.84-12.92h-55.6l2.56-10.16h42.96a10.506,10.506,0,0,1,4,.76,10.131,10.131,0,0,1,3.2,2.08,9.379,9.379,0,0,1,2.12,3.16,10.215,10.215,0,0,1,.76,3.92V6207Zm28,5.2H814.8l-24.56,25.44H767.918Zm-20.96-15.36h52.241l-2.24,9.04-1.121,1.12h-51.44Zm112,31.4a23.732,23.732,0,0,1-4.52,4.88,20.657,20.657,0,0,1-5.72,3.32,17.274,17.274,0,0,1-6.24,1.2h-19.12l2.56-10.16h8.96a6.173,6.173,0,0,0,3.96-1.52,6.866,6.866,0,0,0,2.44-3.6l2.48-10.16h20.4l-2.48,10.16A18.11,18.11,0,0,1,882.878,6228.24Zm-50.6-25.28a22.731,22.731,0,0,1,4.08-3.24,20.673,20.673,0,0,1,4.64-2.12,16.678,16.678,0,0,1,4.92-.76h30.64a11.7,11.7,0,0,1,8.2,2.88,11.494,11.494,0,0,1,3.72,7.28h-59.44A23.439,23.439,0,0,1,832.278,6202.96Zm3.48,34.68a12.855,12.855,0,0,1-4.84-.88,10.944,10.944,0,0,1-3.76-2.44,11.17,11.17,0,0,1-2.44-3.68,11.838,11.838,0,0,1-.88-4.6,15.19,15.19,0,0,1,.48-3.68l2.48-10.16h20.4l-6.32,25.44h-5.12Z" transform="translate(-700.562 -6196.84)"/>
</svg>
