<svg xmlns="http://www.w3.org/2000/svg" width="193.06" height="40.82" viewBox="0 0 193.06 40.82">
  <defs>
    <style>
      .cls-1 {
        fill: #fff;
        fill-rule: evenodd;
      }
    </style>
  </defs>
  <path id="_550" data-name="550" class="cls-1" d="M1976.32,6215.32a9.286,9.286,0,0,1,2.16,6.32,8.745,8.745,0,0,1-.12,1.44c-0.08.48-.18,0.99-0.28,1.52l-0.16.64a13.758,13.758,0,0,1-2.28,4.8,19.417,19.417,0,0,1-8.6,6.6,13.744,13.744,0,0,1-5.04,1h-42.96l2.56-10.16h32.64a3.135,3.135,0,0,0,2.04-.76,3.751,3.751,0,0,0,1.24-1.96,1.648,1.648,0,0,0,.08-0.72c0-1.22-.7-1.84-2.08-1.84H1935.6a10.148,10.148,0,0,1-7.32-2.64,9.188,9.188,0,0,1-2.76-6.96v-0.4h45.04A9.628,9.628,0,0,1,1976.32,6215.32Zm-47.2-18.48h55.84L1982.4,6207h-55.84Zm110.56,18.48a9.286,9.286,0,0,1,2.16,6.32,8.745,8.745,0,0,1-.12,1.44c-0.08.48-.18,0.99-0.28,1.52l-0.16.64a13.758,13.758,0,0,1-2.28,4.8,19.417,19.417,0,0,1-8.6,6.6,13.744,13.744,0,0,1-5.04,1H1982.4l2.56-10.16h32.64a3.135,3.135,0,0,0,2.04-.76,3.751,3.751,0,0,0,1.24-1.96,1.648,1.648,0,0,0,.08-0.72c0-1.22-.7-1.84-2.08-1.84h-19.92a10.148,10.148,0,0,1-7.32-2.64,9.188,9.188,0,0,1-2.76-6.96v-0.4h45.04A9.628,9.628,0,0,1,2039.68,6215.32Zm-47.2-18.48h55.84l-2.56,10.16h-55.84Zm114,31.4a23.815,23.815,0,0,1-4.52,4.88,20.758,20.758,0,0,1-5.72,3.32,17.274,17.274,0,0,1-6.24,1.2h-19.12l2.56-10.16h8.96a6.2,6.2,0,0,0,3.96-1.52,6.924,6.924,0,0,0,2.44-3.6l2.48-10.16h20.4l-2.48,10.16A18.257,18.257,0,0,1,2106.48,6228.24Zm-50.6-25.28a22.522,22.522,0,0,1,4.08-3.24,20.473,20.473,0,0,1,4.64-2.12,16.608,16.608,0,0,1,4.92-.76h30.64a11.707,11.707,0,0,1,8.2,2.88,11.561,11.561,0,0,1,3.72,7.28h-59.44A22.791,22.791,0,0,1,2055.88,6202.96Zm3.48,34.68a12.829,12.829,0,0,1-4.84-.88,10.915,10.915,0,0,1-3.76-2.44,11.062,11.062,0,0,1-2.44-3.68,11.783,11.783,0,0,1-.88-4.6,15.19,15.19,0,0,1,.48-3.68l2.48-10.16h20.4l-6.32,25.44h-5.12Z" transform="translate(-1919.03 -6196.84)"/>
</svg>
